<?xml version="1.0" standalone="no"?>
<!DOCTYPE svg PUBLIC "-//W3C//DTD SVG 1.1//EN" "http://www.w3.org/Graphics/SVG/1.1/DTD/svg11.dtd" >
<svg xmlns="http://www.w3.org/2000/svg">
<metadata>
Created by FontForge 20120731 at Tue May 16 18:02:42 2017
 By admin
</metadata>
<defs>
<font id="iconfont" horiz-adv-x="1024" >
  <font-face 
    font-family="iconfont"
    font-weight="500"
    font-stretch="normal"
    units-per-em="1024"
    panose-1="2 0 6 3 0 0 0 0 0 0"
    ascent="896"
    descent="-128"
    x-height="792"
    bbox="0 -175 1024 896"
    underline-thickness="0"
    underline-position="0"
    unicode-range="U+0078-E6E7"
  />
<missing-glyph 
 />
    <glyph glyph-name=".notdef" 
 />
    <glyph glyph-name=".notdef" 
 />
    <glyph glyph-name=".null" horiz-adv-x="0" 
 />
    <glyph glyph-name="nonmarkingreturn" horiz-adv-x="341" 
 />
    <glyph glyph-name="x" unicode="x" horiz-adv-x="1001" 
d="M281 543q-27 -1 -53 -1h-83q-18 0 -36.5 -6t-32.5 -18.5t-23 -32t-9 -45.5v-76h912v41q0 16 -0.5 30t-0.5 18q0 13 -5 29t-17 29.5t-31.5 22.5t-49.5 9h-133v-97h-438v97zM955 310v-52q0 -23 0.5 -52t0.5 -58t-10.5 -47.5t-26 -30t-33 -16t-31.5 -4.5q-14 -1 -29.5 -0.5
t-29.5 0.5h-32l-45 128h-439l-44 -128h-29h-34q-20 0 -45 1q-25 0 -41 9.5t-25.5 23t-13.5 29.5t-4 30v167h911zM163 247q-12 0 -21 -8.5t-9 -21.5t9 -21.5t21 -8.5q13 0 22 8.5t9 21.5t-9 21.5t-22 8.5zM316 123q-8 -26 -14 -48q-5 -19 -10.5 -37t-7.5 -25t-3 -15t1 -14.5
t9.5 -10.5t21.5 -4h37h67h81h80h64h36q23 0 34 12t2 38q-5 13 -9.5 30.5t-9.5 34.5q-5 19 -11 39h-368zM336 498v228q0 11 2.5 23t10 21.5t20.5 15.5t34 6h188q31 0 51.5 -14.5t20.5 -52.5v-227h-327z" />
    <glyph glyph-name="icon1" unicode="&#xe600;" 
d="M944 231l-84 -102l34 -3q-5 -3 -12.5 -9t-31 -21t-46 -27t-53.5 -22.5t-58 -11.5q-26 -1 -50.5 11t-40 29.5t-27 36.5t-17 31t-5.5 13v211h127v63h-121v84q40 13 65 48t25 79q0 55 -39.5 94.5t-94.5 39.5h-1h-2q-55 0 -94.5 -39.5t-39.5 -94.5q0 -44 25 -79t65 -48v-84
h-121v-63h127v-211q-2 -5 -5.5 -13.5t-16.5 -30t-28 -37.5t-39.5 -28.5t-51.5 -11.5q-43 2 -93.5 25.5t-79.5 43.5t-29 22l34 3l-85 102l-28 -123l36 8q3 -5 8.5 -14t24 -33.5t38.5 -46t50.5 -45t60.5 -37.5q44 -20 104 -50t95 -46.5t44 -18.5h1q10 2 45 18.5t94.5 46.5
t102.5 50q30 14 59.5 37t50 46t37 45t25 34.5t8.5 13.5l36 -8zM514 567h-2q-30 0 -51.5 21.5t-21.5 52.5q0 30 21.5 51t51.5 21h2h1q30 0 51.5 -21t21.5 -51q0 -31 -21.5 -52.5t-51.5 -21.5h-1z" />
    <glyph glyph-name="zan" unicode="&#xe623;" 
d="M699 292q5 -5 8 -6h2l1 1q2 1 8 3q17 6 15 20l-1 2l-1 1q-21 7 -36 6h-2v-2q-1 -3 -2 -9v-9l-1 -2l3 -1q2 -1 6 -4zM708 204q-12 0 -17 -7.5t0 -19.5l1 -1h1q7 -2 14 -2q26 0 28 17v1l-1 1q-9 11 -26 11zM693 55q-10 0 -15 -6q-4 -4 -3 -10v-1v0q7 -11 22 -11q11 0 16 7
l1 1q3 6 -1 11q-5 9 -20 9zM922 427v2h-1q-18 11 -73 13q-26 1 -36 3q9 16 17 32q3 5 6 16q2 7 4 11q0 2 3 5q4 6 5 10q2 12 -2 38q-18 119 -65 165v0l-1 1q-6 1 -16 9q-13 9 -22 11q-18 5 -41 5q-38 0 -73 -11l-2 -1v-2q1 -5 -1 -10q-2 -3 -2 -5v-1v-1q12 -22 2 -97
q-5 -35 -5 -51q-1 -34 -20 -66q-17 -9 -32 -26q-30 -20 -121 -29q-17 -2 -22 -2l-1 -1l-1 -1q-7 -11 -16 -13l-2 -1v-2q1 -2 -1 -5q-1 -3 -1 -6q-10 -5 -23 -25q-9 -13 -14 -18h-1v-2q1 -22 -15 -38q-18 -18 -48 -18h-4q-1 2 1 6q4 7 3 14l-1 1l-1 1q-9 5 -6 27q3 14 1 19v1
q-5 6 -18 11l-4 2l-1 -1q-37 -19 -128 -19h-31h-2v-2q-4 -12 -5 -42q-1 -41 -10 -57l-1 -1l2 -2q6 -5 2 -18q-1 -6 -1 -8q-3 -27 -3 -86q0 -39 -1 -57v-1l1 -1q8 -10 7 -43q-1 -29 3 -41q-1 -2 -2 -5q-7 -11 -7 -19q-1 -7 7 -9q3 -1 3 -3q0 -9 3 -25q3 -13 3 -20v-17
q0 -11 0.5 -17t2 -15t5.5 -14.5t11 -7.5q21 -8 91 -12q13 0 24 -1q24 -2 38 -2q45 0 56 16v1q2 7 3 31q1 13 1.5 20t2 17t5.5 14.5t9 4.5q4 0 8 -2q3 -4 6 -14q3 -11 6 -16q2 -2 5 -2h1v-0.5v-0.5q0 -3 1 -4t3 -5q13 -19 21 -21q6 -2 15 -2t28 2q15 3 22 3h1q3 0 9 -2
q7 -1 10 -1q6 -1 16 0q14 2 21 1q17 -1 61 -3q60 -4 90 -5q6 0 17 -1q19 -1 28 0q17 2 44 11q24 9 35 9l1 1l1 1q2 6 14 11q3 2 4 2l1 1q5 5 8 17q2 7 3 11q4 9 18 28q14 20 18 30q1 2 0 7q0 5 1 7t6 7q6 6 7 11q2 7 2 21q-1 10 0 14q1 12 7 37q8 39 9 61q8 13 7 51
q-1 24 1 36q0 3 2 9q3 8 3 12q-1 2 -4 9q-3 5 -3 6q1 1 4 5q6 5 7 7q3 6 4 12q3 25 1 57.5t-8 52.5zM245 359q2 0 4 1t3 1q-2 -5 -7 -10q1 4 0 8zM834 286h-1q-6 1 -12 1q-10 0 -16.5 -5.5t-6.5 -12.5q-1 -12 15 -15h1h1v3v0l1 -3q1 1 5 2q10 2 13 3q6 2 20 9q22 10 30 10
q7 -33 -6 -87q-15 -22 -71 -22q-5 0 -21 1h-14h-1l-1 -1q-1 -1 -2 -5q-2 -3 -3 -4l-3 -1l1 -2q3 -10 12 -17l1 -1h1q47 1 96 13q0 -1 -1 -3q-2 -4 -2 -7t2 -8q2 -4 1 -5q0 -5 -5 -23q-5 -16 -6 -21q-1 -6 -2 -14q-1 -10 -2 -15t-5.5 -9.5t-11.5 -6.5q-2 0 -7 2q-5 1 -7 2
q-8 0 -29 -2q-13 -1 -20 -2h-1.5h-2.5q-24 0 -28 -8q-4 -6 1 -15l1 -1h1q9 -1 20 -1h20q13 1 21 1q18 0 30 -3q-2 -12 -16 -35q-11 -19 -14 -30q-43 -37 -125 -37q-29 0 -88 5q-62 6 -92 6v0q-3 0 -15 -1h-30q-35 0 -45 7q-7 5 -12 26q-3 10 -4.5 15.5t-7 11.5t-13.5 7
q-9 1 -26 -5q-14 -5 -20 -5t-11 2q-13 25 -22 92q-3 19 -5 28q1 2 4 7q4 9 4 15q1 3 -0.5 5.5t-7.5 2.5h-3q0 14 -3 42q-4 22 -2 47t13 41v1q1 6 -4 10q-2 2 -2 3q9 5 32 14q17 7 26.5 11.5t22 13.5t18 22t5.5 31q6 6 15 19q12 15 19 21q4 1 10 3t11 2h2q5 1 8 7l1 1
q93 11 124 37q5 -1 10 2q4 1 7 1v0h1l1 1q33 38 46 110q11 -4 21 -4q21 0 38 15t25 35l1 1l-1 1q-1 9 -7 26q-2 7 -2 8l-1 1l-1 1q-4 1 -14 8q-26 17 -40 17q-6 0 -12 -3q0 24 2 34q14 8 37 8q5 0 10 -1q33 -4 56 -25q32 -29 47 -123q10 -58 -17 -84l-1 -1v-2q1 -5 -2 -10
q-5 -6 -4 -12q-2 -2 -5 -4q-21 -18 -16 -35v-1h1q13 -8 38 -8q8 0 22 1h22q35 0 49 -13q10 -70 -10 -94q-21 -4 -54 -20zM279 -34q6 9 8 14h1q2 -3 2 -7q-6 -2 -11 -7zM270 -115q4 18 20 47q5 9 8 14q9 -2 22 3q4 1 6 2q-2 -3 -2 -5q-3 0 -7 -2q-2 -1 -2 -2h-1h-1
q-5 -8 -14 -22q-16 -26 -26 -35h-3zM674 651q25 -11 31 -21q-3 -39 -52 -34q1 10 4 28q3 23 3 33q4 -2 14 -6zM165 107q6 7 8 10q-3 -10 -16 -25q-4 -5 -7 -8v0q3 9 15 23zM200 154q-16 -28 -24 -33q4 6 6 13q2 3 16 21q8 10 15 20q-4 -6 -13 -21zM255 268q2 -4 -1 -12
q0 -1 -1 -2v-1q-11 1 -18 -1q8 12 20 16zM260 47l-4 -2q1 1 3.5 4.5t3.5 5.5l1 1v1q0 7 5 9q0 -2 1 -5q2 -6 2 -10q-5 -1 -12 -4zM260 310q-4 -5 -5 -7q-8 1 -15 -2q10 19 27 31q2 -10 -7 -22zM186 230q8 12 20 28q-9 -16 -20 -28zM134 62q7 6 7 13q1 1 4 3v0q0 -1 -1 -3
t-2 -2q-7 -12 -13 -17q1 3 5 6zM137 11q8 10 8 17q14 15 38 51q18 28 28 40q6 8 14 22q5 8 7 10q1 3 5 8q11 13 9 25q-2 7 -9 7q-10 0 -20 -11q-1 -1 -2 -3q26 35 40 62v-10q0 -11 3 -16q-7 -11 -7 -37q0 -18 -2 -25q-1 -3 -6 -9q-5 -4 -7 -7q-5 -8 -13 -20q-18 -28 -28 -40
q-3 -5 -13 -16q-16 -19 -22 -28q-3 -4 -8 -12q-12 -20 -21 -27q-2 9 6 19zM145 -41q7 6 9 10q18 21 45 67q11 8 25 30q15 24 26 32q4 -9 -9 -24q-3 -4 -4 -6l-6 -8q-12 -17 -18 -22l-1 -1q-9 -16 -29 -45q-29 -41 -40 -65v-1v-1q1 -10 18 -12h2l1 1l0.5 0.5l0.5 0.5
q-2 -13 5 -18h1h3q18 0 33 20q-1 -2 -2 -5l-1 -3q-4 -13 -5 -19q-2 0 -11 1q-13 1 -20.5 2t-16 6t-11.5 13q-1 3 -3.5 17.5t-2.5 16.5q1 4 11 13zM222 -56q9 18 14 25q3 4 8 11q7 12 14 17h1v1q2 10 13 24q3 5 4 6v-3q0 -7 2 -10q-10 -12 -27 -41q-24 -39 -41 -53q4 7 12 23
zM124 245q0 1 1 5t1 7q2 -1 4 -6zM165 248q-13 -21 -28 -35q3 6 11 17q8 12 11 19h3t3 -1zM175 339q-9 -11 -11 -20q-8 -6 -19 -21q-8 -13 -14 -18q4 10 17 27q15 18 19 29q5 2 10 10q4 6 6 8v0l1 -1v0q-2 -6 -9 -14zM505 -81v0v0v0zM133 332q1 1 1 1.5v0.5q3 7 2 12
q1 0 5 2q2 0 4 1q-2 -4 -7 -10q-3 -4 -5 -7z" />
    <glyph glyph-name="zanfuwutubiao02" unicode="&#xe649;" 
d="M512 732q9 0 15 6.5t6 14.5v62q0 9 -6 15t-15 6t-15 -6t-6 -15v-62q0 -8 6 -14.5t15 -6.5zM887 377h62q9 0 15 6t6 15t-6 15t-15 6h-62q-9 0 -15 -6t-6 -15t6 -15t15 -6zM793 624q9 0 15 6l44 44q6 6 6 15t-6.5 15t-15 6t-14.5 -6l-44 -44q-6 -6 -6 -15t6 -15t15 -6z
M75 377h62q9 0 15 6t6 15t-6 15t-15 6h-62q-9 0 -15 -6t-6 -15t6 -15t15 -6zM216 630q6 -6 15 -6t15 6t6 15t-6 15l-44 44q-6 6 -14.5 6t-15 -6t-6.5 -15t6 -15zM386 152q19 -10 19 -30v-31q0 -9 6 -15t15 -6h172q9 0 15 6t6 15v31q0 20 19 30q71 38 112 103t41 139
q0 114 -82 195t-197 81t-197 -81t-82 -195q0 -77 41.5 -142t111.5 -100zM512 627q98 0 167 -68t69 -165q0 -62 -35 -117t-94 -87q-20 -10 -31.5 -28t-11.5 -40v-10h-128v10q0 22 -11.5 40t-31.5 28q-59 30 -94 85t-35 119q0 97 69 165t167 68zM569 -40q9 0 15.5 6t6.5 15
t-6.5 15t-15.5 6h-114q-9 0 -15.5 -6t-6.5 -15t6.5 -15t15.5 -6h114zM399 300q9 0 15 6.5t6 15.5v106l76 -82h0.5h0.5v-0.5v-0.5q1 0 2 -1l1 -1q3 -2 4 -2t4 -1h3.5h4.5q3 1 4 1t4 2l1 1t2 1v0.5v0.5h0.5h0.5l76 82v-106q0 -9 6 -15.5t15 -6.5t15 6.5t6 15.5v160
q0 14 -13.5 19.5t-23.5 -5.5l-97 -104l-97 104q-10 11 -23.5 5.5t-13.5 -19.5v-160q0 -9 6 -15.5t15 -6.5z" />
    <glyph glyph-name="dianzan" unicode="&#xe6b5;" 
d="M743 391v-355h115l65 360zM682 36l2 357q-17 0 -37 27q-1 1 -14.5 19.5t-20 27t-19 24t-23 24.5t-18.5 14q-23 12 -36.5 65t-11.5 103q2 42 -6 57t-23 18q-27 4 -53 -14q-15 -11 -30 -50.5t-15 -56.5q0 -83 16 -129q6 -21 16 -37t17 -21l6 -6q-127 35 -176 40
q-40 5 -48 5t-43 -3q-12 -2 -20.5 -7.5t-11.5 -12t-5 -13t-1.5 -11l0.5 -4.5v0q-3 -45 17 -57q-2 -1 -5.5 -3t-8 -11t-4.5 -21q0 -10 0.5 -22t1 -22.5t5 -21.5t13.5 -18q-2 0 -5.5 -2.5t-9 -18t-5 -41t15.5 -54.5t28.5 -44.5t14.5 -15.5q1 -4 3.5 -9.5t12.5 -22t21 -31
t31 -30.5t42 -25q7 -2 20.5 -4t58 0.5t91.5 15.5q34 9 56 16.5t28.5 10t20 5.5t40.5 6q75 9 72 4z" />
    <glyph glyph-name="gaodianshi" unicode="&#xe6a5;" 
d="M604 55h-91q-10 0 -17 7t-7 17t7 17t17 7h91q9 0 15.5 6t6.5 15q6 76 55 148q52 70 57 140v15q0 93 -66 159t-159 66q-10 0 -17 7t-7 17t7 17t17 7q113 0 193.5 -80t80.5 -193l-1 -17q-5 -86 -65 -166q-42 -61 -46 -124q-2 -27 -22.5 -46t-48.5 -19v0zM513 55h-91
q-27 0 -47.5 19t-23.5 46q-4 63 -46 124q-60 80 -65 165v17q0 113 80 193.5t193 80.5q10 0 17 -7t7 -17t-7 -17t-17 -7q-93 0 -159 -66t-66 -159v-16q5 -69 56 -139q50 -72 56 -148q0 -9 6.5 -15t15.5 -6h91q10 0 17 -7t7 -17t-7 -17t-17 -7v0zM628 -19h-230q-10 0 -17 7
t-7 17t7 17t17 7h230q10 0 17 -7t7 -17t-7 -17t-17 -7zM628 -93h-230q-10 0 -17 7t-7 17t7 17t17 7h230q10 0 17 -7t7 -17t-7 -17t-17 -7zM516 274l-71 88q-6 8 -5 18t8.5 16t17.5 5t16 -8l34 -42l34 42q7 7 17 8.5t17.5 -5t8.5 -16.5t-5 -18zM516 67q-10 0 -17 7t-7 17v234
q0 10 7 17t17 7t17.5 -7t7.5 -17v-234q0 -10 -7.5 -17t-17.5 -7zM182 470h-4l-79 16q-10 2 -15.5 10t-3.5 18q1 9 8 14.5t15 5.5q3 0 5 -1l79 -15q10 -2 15.5 -10.5t3.5 -18.5q-1 -8 -8 -13.5t-16 -5.5zM285 661v0q-11 0 -18 8l-55 59q-7 8 -6.5 18t8 16.5t17.5 6t17 -7.5
l54 -59q7 -8 6.5 -18t-7.5 -17q-7 -6 -16 -6v0zM852 470q-9 0 -15.5 5.5t-8.5 13.5q-2 10 3.5 18.5t15.5 10.5l79 15q10 2 18.5 -3.5t10.5 -15.5t-3.5 -18t-15.5 -10l-80 -16h-4v0zM750 661v0q-10 0 -17 6q-7 7 -7.5 17t6.5 18l54 59q7 7 17 7.5t17.5 -6t8 -16.5t-6.5 -18
l-54 -59q-8 -8 -18 -8v0zM515 736v0q-10 0 -17 7t-7 17v81q0 10 7 17t17 7v0q10 0 17 -7t7 -17v-81q0 -10 -7 -17t-17 -7z" />
    <glyph glyph-name="icon-test" unicode="&#xe60b;" 
d="M300 300l5 2q1 -5 27 -15l5 -13q16 -37 37 -112q22 8 61 -14l2 -4l-47 -36l18 -43q4 -8 -45 -30q-17 11 -26 7l-1 3q-17 37 -17 50l-4 -2l6 -15l-11 -4q-62 -24 -91 -8l-4 -1l-2 4q-11 25 32 182q18 7 23 31q19 13 32 18zM216 80q43 30 38 40q-1 3 1 10l-1 2
q-38 -32 -37 -34q-2 -14 -1 -18zM217 73l1 -2q17 1 28 6q1 0 20 15l-1 2q-11 -4 -15 6q-35 -23 -33 -27zM226 144l11 4q-1 -3 -16 -19q-3 -16 -1 -20q41 31 38 40l1 10l-4 -4l-9 -3l-1 2q17 6 21 37l-1 3q-38 -32 -37 -37zM232 173l1 -2l2 1q42 35 35 51q2 1 2 3h-3
q-43 -33 -36 -49q-2 -2 -1 -4zM241 212l1 -2q20 15 66 58l3 1l-7 15l1 5l-3 -1q-55 -49 -56 -57zM312 107l-36 -14q-2 0 -16 -11l1 -2l12 2l20 8q18 7 61 46l-6 15l-3 -1q-36 -25 -31 -37q2 -4 -2 -6zM268 265l1 -2q26 25 28 26l-1 2l-9 -4q-18 -7 -19 -22zM276 223
q24 -57 12 -90l-4 -29l27 11q-11 44 -32 106l-1 3zM279 232l7 -15q20 22 32 27l-3 9l-3 12l-2 -1q-32 -25 -31 -32zM293 195q36 25 29 41l-3 6h-2q-32 -29 -28 -39zM294 190l3 -6l3 -12l2 1l-1 -5l7 -15l32 27l-6 16q-14 -16 -21 -19l-2 -1q-1 3 20 26l-3 13l-1 3zM307 148
l3 -6l2 -12q36 26 34 31l-5 13q-17 -12 -34 -26zM356 132q-36 -27 -31 -37l1 -10q38 27 35 34q37 32 43 34l-1 2q-2 4 -14 4l-31 -31zM328 81l5 -10l-1 -5h2q18 11 26 18t7 10l-5 13zM334 61l5 -13q39 20 36 27l-4 11q-33 -23 -37 -25zM358 140l1 -4q8 3 11 24l-2 -1
q-5 -17 -10 -19zM732 256h4q-1 -4 14 -20v-11q-2 -34 -13 -96q19 -1 39 -30v-4l-48 -11l-2 -37q0 -8 -44 -8q-8 14 -16 14v2q1 34 6 43h-4l-1 -13l-9 1q-56 2 -70 24h-4v4q1 22 89 124q15 -1 29 16q19 3 30 2zM588 116v-2q13 -5 23 -5q2 0 20 5l1 2q-10 0 -10 9
q-34 -5 -34 -9zM590 121q42 8 43 17q0 3 4 7v2q-40 -11 -40 -13q-7 -9 -7 -13zM620 165h10q-3 -3 -18 -9q-9 -11 -9 -14q42 9 42 16l5 8l-4 -2h-8v2q14 -1 29 21v2q-39 -11 -40 -15zM671 110l-32 1q-2 0 -16 -3v-1l10 -3l17 -1q16 0 62 14l1 13l-2 1q-36 -7 -36 -17
q-1 -4 -4 -4zM635 185v-2h2q44 12 45 27q2 0 2 1h-2q-44 -9 -45 -24q-2 0 -2 -2zM686 207q-3 -50 -24 -70l-13 -20l24 -2q8 39 15 90v2h-2zM656 211v-2q21 5 70 21h2l1 13l2 4h-2q-59 -19 -62 -24zM670 68v-11q36 2 36 8v9q-33 -6 -36 -6zM673 85v-9l-2 -4h1q34 4 35 10v11z
M712 114q-36 -8 -36 -18l-3 -7q38 8 39 13q38 12 44 11v2q-1 4 -10 8l-34 -13v4zM682 142v-6l-3 -9q18 3 27 6t9 5l1 11q-16 -2 -34 -7zM688 177v-6l-3 -9h2l-2 -4l-1 -13l34 10l1 13q-16 -7 -22 -7h-2q0 2 24 13l3 11v2zM688 181q36 7 37 21v6h-2q-34 -11 -34 -19zM692 213
l-1 -13q24 10 34 9l1 8l2 9h-2q-33 -8 -34 -13zM695 241v-2q29 10 30 10v2h-7q-17 1 -23 -10zM716 119v-4q7 0 17 14l-2 1q-10 -11 -15 -11zM479 382q80 15 109 -24q15 -28 18 -45q18 -85 -53 -138q-18 -8 -30 -10q-48 -10 -96 33q-14 24 -18 44q-20 96 46 133zM410 265
q9 8 16 9q-15 -14 -14 -17q-1 -8 1 -14h2q36 24 35 30l-2 10q-6 -5 -12 -7l-1 4q16 4 14 30h-2q-34 -25 -37 -34q-1 -4 0 -11zM410 286q50 33 45 57q-23 -18 -34 -27.5t-10 -10.5q-2 -14 -1 -19zM413 316v-2q41 31 53 49q15 3 20 16h-2q-55 -10 -71 -63zM414 235q4 -8 5 -14
q29 23 35 24l-4 18q-9 -2 -36 -28zM422 220q3 -15 10 -15l27 22q0 2 -5 16q-25 -22 -32 -23zM433 199q7 -9 10 -8l4 1q17 15 25 17q-2 6 -10 15q-30 -22 -29 -25zM448 186l1 -3q4 1 12 -3q28 15 28 20q-9 2 -10 8q-18 -8 -31 -22zM469 179l1 -2l15 1l12 2q4 1 18 10v2
q-11 -2 -21 5zM476 249l5 -22q5 -21 29 -32l4 1q37 51 23 119l-3 12l-6 19l-6 -1q-6 -1 -31 2q-25 -45 -15 -98zM476 363l1 -2q17 -3 20 -2q21 15 23 23l-21 -2q-4 -1 -23 -17zM509 363l4 3q2 0 15 -10q15 20 24 21q-1 5 -23 5q-21 -17 -20 -19zM512 185v-2l4 1q30 6 48 40
q-15 -15 -52 -39zM522 198q57 36 54 53q3 7 2 11q-53 -40 -49 -55q-4 -1 -7 -9zM529 352l7 -15l2 1q7 8 27 25v3q-8 8 -9 10h-4zM537 333l4 -9v-9l4 1q29 27 29 28l-1 3q-3 13 -7 13q-26 -26 -29 -27zM540 236q21 15 30.5 25t8.5 14q3 11 2 15h-2l-35 -30q-5 -22 -4 -24z
M542 307l3 -12l10 4q-11 -11 -10 -14q-1 -16 -1 -19q29 21 37 34l-3 12q-10 -10 -17 -11q13 17 18 18l-4 19q-30 -26 -33 -31zM307 569q-16 0 -20 -16q-3 -11 4 -21t26 -15v50q-5 2 -10 2zM710 537v-3q3 5 3 12q0 8 -6 14.5t-15 6.5q-5 0 -9 -3q11 0 19 -8t8 -19zM532 520
q0 7 -8 19.5t-17 21.5l-8 8q0 -25 12 -48q-3 -5 -6.5 -13.5t-4.5 -13.5l-2 -6q33 16 34 32zM489 507v0q4 0 4 5v0v0q0 4 -4 4v0v0q-5 0 -5 -4v0v0q0 -5 5 -5v0zM445 630l-2 16q-2 -1 -14 0.5t-28.5 -6.5t-21.5 -25q17 19 66 15zM621 615q-5 17 -20.5 24.5t-29.5 7.5h-14
q-1 -8 -2 -17q49 4 66 -15zM419.5 518q22.5 0 38.5 14.5t16 35t-16 34.5t-38.5 14t-38 -14t-15.5 -34.5t15.5 -35t38 -14.5zM419.5 614q21.5 0 36.5 -13.5t15 -33t-15 -33t-36.5 -13.5t-36.5 13.5t-15 33t15 33t36.5 13.5zM420 534q15 0 25.5 10t10.5 23.5t-10.5 23
t-25.5 9.5t-26 -9.5t-11 -23t11 -23.5t26 -10zM435.5 552.5q3.5 3.5 6.5 1t-0.5 -6.5t-6.5 -1t0.5 6.5zM396 586q10 10 18 3t-2 -18q-9 -10 -18 -3q-8 8 2 18zM584.5 518q22.5 0 38 14.5t15.5 35t-15.5 34.5t-38 14t-38.5 -14t-16 -34.5t16 -35t38.5 -14.5zM584.5 614
q21.5 0 36.5 -13.5t15 -33t-15 -33t-36.5 -13.5t-36.5 13.5t-15 33t15 33t36.5 13.5zM584 534q15 0 25.5 10t10.5 23.5t-10.5 23t-25.5 9.5t-25.5 -9.5t-10.5 -23t10.5 -23.5t25.5 -10zM599.5 552.5q3.5 3.5 6.5 1t-0.5 -6.5t-6.5 -1t0.5 6.5zM560.5 586q9.5 10 18 3
t-1.5 -18q-10 -10 -18 -3q-8 8 1.5 18zM957 382v0q-1 2 -2 2v1l-0.5 0.5t-1.5 0.5h-1q-9 13 -14 19t-19.5 15.5t-29.5 12.5v35q0 8 -5 8h-198q0 16 -1 28q19 2 31.5 13.5t12.5 28.5t-13.5 29t-32.5 13q-3 134 -7 150l-1 1q-3 4 -21 8q0 22 -12 47q4 -23 -26 -39h-1
q0 4 -0.5 8.5t-5 16.5t-13 23t-26.5 25t-43 25q-2 -59 -32 -86v0l-6 -1v0v0h1q-1 0 -1 -1q-24 -18 -65 -18q-20 0 -44 4q-6 1 -11.5 1t-16.5 -3v0v0q-27 -6 -30 -10l-1 -1q-2 -11 -6 -151q-19 -1 -32 -13t-13 -29q0 -16 12.5 -28t31.5 -13q-1 -16 -1 -28h-181q-3 0 -6.5 -3
t-3.5 -6v-97q-16 -1 -27 -5q-36 -13 -36 -60q0 -2 1 -4q-7 -13 -5 -35q2 -11 5 -14q-5 -10 2 -27q5 -13 22 -10q-7 -13 11 -29h3.5t4.5 2t5.5 4t6.5 5t6 5v-267q0 -6 11 -6h752q5 0 5 6v313q24 2 38 20q8 11 9 17q60 40 21 97zM316 509q-17 0 -28.5 10.5t-11.5 25.5
q0 16 12 26.5t30 10.5v3v-1v-2h0.5h0.5h2v1q11 2 19 4q5 15 13.5 31t14.5 24l6 9q-9 29 -13 67q24 -41 82 -56.5t115.5 -2t82.5 47.5q-2 -15 -5.5 -29t-5.5 -21l-2 -6q24 -29 34 -64q2 -1 6.5 -1.5t7.5 -0.5t5 -1v3h1q17 0 29.5 -12t12.5 -27t-11 -26q-15 -10 -41 -10l2 -35
h-356q0 5 0.5 15t0.5 15v2h-3zM127 463q0 3 3.5 6t6.5 3h742q5 0 5 -9v-29q0 2 -10 1q-48 -5 -61 -10h-637l-1 -2v-60q-16 8 -48 7v93v0zM821 -14h-640v297q16 6 15 22q-1 12 -15 16v8q2 1 3 2t1.5 2.5l0.5 1.5q9 17 -5 24v56h615q-5 -10 -5 -12q-2 -11 -2 -29l-91 -59
q-1 0 -3 -1t-6.5 -5t-6.5 -7.5t-3.5 -9t2.5 -9.5q15 -23 51 -1q49 30 64 41v-1v0l-3 -2q-9 -6 -4.5 -22t20.5 -19q2 -1 5.5 -0.5t3.5 1.5v-294h3zM178 271q0 5 -5 8l5 2v-10zM178 323h-2h-1l1 1t2 1v-2zM879 -66h-742q-10 0 -10 7v266q1 0 6 3q16 7 25.5 17.5t0.5 15.5h-1
h-1q18 7 18 21v-289l655 2v292q17 -16 35 -10q4 -9 19 -10v-308q0 -7 -5 -7zM879 -66z" />
    <glyph glyph-name="octicon-check" unicode="&#xe609;" 
d="M896 576l-512 -512l-256 256l96 96l160 -160l416 416z" />
    <glyph glyph-name="octicon-eye" unicode="&#xe60a;" 
d="M516 768q-52 0 -103 -13t-93 -35.5t-81.5 -51t-71 -60.5t-59 -64t-47 -60.5t-33.5 -51t-21 -35.5l-7 -13q4 -8 11.5 -22t34 -53.5t55.5 -76t75.5 -81t95.5 -76t113.5 -53.5t130.5 -22q51 0 100.5 13t91 35.5t80.5 51t70 60.5t58 64t46.5 60.5t33.5 51t21 35.5l7 13
q-4 8 -11.5 22t-34 53.5t-55 76t-74.5 81t-94 76t-111.5 53.5t-127.5 22zM512 128q-106 0 -181 75t-75 181t75 181t181 75t181 -75t75 -181q0 -107 -74.5 -181.5t-181.5 -74.5zM640 384q0 -53 -37.5 -90.5t-90.5 -37.5t-90.5 37.5t-37.5 90.5t37.5 90.5t90.5 37.5
t90.5 -37.5t37.5 -90.5z" />
    <glyph glyph-name="octicon-issue-opened" unicode="&#xe60c;" 
d="M512 749q99 0 183 -49t133 -133t49 -183t-49 -183t-133 -133t-183 -49t-183 49t-133 133t-49 183t49 183t133 133t183 49zM512 832q-185 0 -316.5 -131.5t-131.5 -316.5t131.5 -316.5t316.5 -131.5t316.5 131.5t131.5 316.5t-131.5 316.5t-316.5 131.5zM576 640h-128
v-320h128v320zM576 256h-128v-128h128v128z" />
    <glyph glyph-name="octicon-git-pull-req" unicode="&#xe60d;" 
d="M832 174v402q-3 76 -60 132q-58 57 -132 60h-64v128l-192 -192l192 -192v128h64q25 -2 44 -20t20 -44v-402q-26 -15 -45 -47.5t-19 -62.5q0 -53 37.5 -90.5t90.5 -37.5v0v0q53 0 90.5 37.5t37.5 90.5q0 30 -19 62.5t-45 47.5zM768 -13q-32 0 -54.5 23t-22.5 54t23 54
t54 23t54 -23t23 -54t-23 -54t-54 -23zM384 704q0 53 -37.5 90.5t-90.5 37.5v0q-53 0 -90.5 -37.5t-37.5 -90.5q0 -30 19 -62.5t45 -47.5v-420q-26 -15 -45 -47.5t-19 -62.5q0 -53 37.5 -90.5t90.5 -37.5v0v0q53 0 90.5 37.5t37.5 90.5q0 30 -19 62.5t-45 47.5v420
q29 17 46.5 46t17.5 64zM333 64q0 -32 -23 -54.5t-54 -22.5t-54 23t-23 54t23 54t54 23t54 -23t23 -54zM256 627q-32 0 -54.5 23t-22.5 54t23 54t54 23t54 -23t23 -54t-23 -54t-54 -23z" />
    <glyph glyph-name="octicon-mark-github" unicode="&#xe60e;" 
d="M512 896q-139 0 -257 -68.5t-186.5 -186.5t-68.5 -257q0 -168 97.5 -301t252.5 -185q18 -3 26.5 5t8.5 20v36v59q-142 -26 -173 60q-6 16 -22 40t-30 32q-7 4 -13.5 9.5t-9.5 11t2 9.5t20 4q27 1 47 -16t32 -36q16 -27 38 -41t43.5 -14.5t37.5 3t30 10.5q6 45 33 68
q-38 4 -68.5 12t-62.5 26t-53.5 44.5t-35 70t-13.5 100.5q0 80 52 137q-24 62 5 136q2 1 5.5 1.5t16.5 -1t27.5 -6t39.5 -16.5t52 -30q62 17 128.5 17t127.5 -17q44 29 79 42.5t49 11.5l13 -2q30 -74 5 -136q53 -57 53 -137q0 -57 -14 -100.5t-35.5 -70t-53.5 -44.5
t-62.5 -26t-68.5 -12q35 -30 35 -95q0 -40 -0.5 -89t-0.5 -51q0 -12 9 -20t26 -5q95 32 175.5 108.5t127 177t46.5 200.5q0 139 -68.5 257t-186.5 186.5t-257 68.5z" />
    <glyph glyph-name="octicon-pulse" unicode="&#xe60f;" 
d="M800 384l-173 166l-141 -198l-70 442l-200 -410h-152v-128h230l58 115l58 -345l230 326l102 -96h218v128h-160z" />
    <glyph glyph-name="octicon-repo" unicode="&#xe610;" 
d="M384 320h-64v64h64v-64zM384 512h-64v-64h64v64zM384 640h-64v-64h64v64zM384 768h-64v-64h64v64zM896 832v-768q0 -26 -19 -45t-45 -19h-320v-128l-96 96l-96 -96v128h-128q-26 0 -45 19t-19 45v768q0 26 19 45t45 19h640q26 0 45 -19t19 -45zM832 192h-640v-128h128v64
h192v-64h320v128zM832 832h-576v-576h576v576z" />
    <glyph glyph-name="octicon-search" unicode="&#xe611;" 
d="M1005 45l-244 245q29 41 50 106t21 115v1q0 159 -112.5 271.5t-271.5 112.5t-271.5 -112.5t-112.5 -271.5t112.5 -271.5t271.5 -112.5q122 0 222 71l245 -244q18 -19 45 -19q28 0 45 19q19 19 19 45.5t-19 44.5v0zM448 211q-124 0 -212.5 88.5t-88.5 212.5t88.5 212.5
t212.5 88.5t212.5 -88.5t88.5 -212.5t-88.5 -212.5t-212.5 -88.5z" />
    <glyph glyph-name="octicon-sign-out" unicode="&#xe612;" 
d="M768 320v128h-256v128h256v128l255 -192zM640 128h-256v576l-256 128h512v-192h64v192q0 26 -19 45t-45 19h-576q-26 0 -45 -19t-19 -45v-728q0 -39 35 -58l349 -174v193h256q26 0 45 18.5t19 44.5v256h-64v-256z" />
    <glyph glyph-name="octicon-star" unicode="&#xe613;" 
d="M960 512l-314 41l-134 279l-134 -279l-314 -41l230 -209l-59 -303l277 149l277 -149l-59 303z" />
    <glyph glyph-name="octicon-telescope" unicode="&#xe614;" 
d="M576 320l192 -384h-64l-128 256v-320h-64v384l-128 -320h-64l128 320zM512 896h-64v-64h64v64zM384 704h-64v-64h64v64zM192 832h-64v-64h64v64zM104 320q-14 -10 -14 -27q0 -9 4 -16l35 -59q6 -11 18 -14.5t23 1.5l89 43l-74 128l-81 -55v-1zM609 665l-371 -253l79 -137
l405 194l-113 196v0zM879 583l-94 161q-9 17 -28 17q-10 0 -18 -6l-77 -53l118 -205l85 41q13 6 17 19.5t-3 25.5z" />
    <glyph glyph-name="octicon-three-bars" unicode="&#xe615;" 
d="M858 320h-692q-11 0 -18.5 3.5t-11.5 8t-5.5 14.5t-2 16.5t-0.5 21.5t0.5 21.5t2 16.5t5.5 14.5t11.5 8t18.5 3.5h692q11 0 18 -3.5t11 -8t6 -14.5t2 -16.5v-21.5v-21.5t-2 -16.5t-6 -14.5t-11 -8t-18 -3.5v0zM858 576h-692q-11 0 -18.5 3.5t-11.5 8t-5.5 14.5t-2 16.5
t-0.5 21.5t0.5 21.5t2 16.5t5.5 14.5t11.5 8t18.5 3.5h692q11 0 18 -3.5t11 -8t6 -14.5t2 -16.5v-21.5v-21.5t-2 -16.5t-6 -14.5t-11 -8t-18 -3.5v0zM166 192h692q11 0 18 -3.5t11 -8t6 -14.5t2 -16.5v-21.5v-21.5t-2 -16.5t-6 -14.5t-11 -8t-18 -3.5h-692q-11 0 -18.5 3.5
t-11.5 8t-5.5 14.5t-2 16.5t-0.5 21.5t0.5 21.5t2 16.5t5.5 14.5t11.5 8t18.5 3.5z" />
    <glyph glyph-name="octicon-history" unicode="&#xe616;" 
d="M576 64h-128v448h320v-128h-192v-320zM512 832q-103 0 -193 -44.5t-153 -121.5l-102 102v-256h256l-96 96q52 65 127 103t161 38q99 0 183 -49t133 -133t49 -183t-49 -183t-133 -133t-183 -49t-183 49t-133 133t-49 183q0 32 6 64h-84q-5 -34 -5 -64q0 -185 131.5 -316.5
t316.5 -131.5t316.5 131.5t131.5 316.5t-131.5 316.5t-316.5 131.5z" />
    <glyph glyph-name="octicon-issue-closed" unicode="&#xe617;" 
d="M448 256h128v-128h-128v128zM576 640h-128v-320h128v320zM672 544l-64 -64l160 -160l256 288l-64 64l-192 -224zM512 19q-99 0 -183 49t-133 133t-49 183t49 183t133 133t183 49q86 0 161 -38t127 -103l59 59q-55 68 -156.5 116.5t-189.5 48.5h-1q-185 0 -316.5 -131.5
t-131.5 -316.5t131.5 -316.5t316.5 -131.5t316.5 131.5t131.5 316.5l-97 -97q-32 -117 -129.5 -192.5t-221.5 -75.5v0z" />
    <glyph glyph-name="octicon-issue-opened1" unicode="&#xe618;" 
d="M512 749q99 0 183 -49t133 -133t49 -183t-49 -183t-133 -133t-183 -49t-183 49t-133 133t-49 183t49 183t133 133t183 49zM512 832q-185 0 -316.5 -131.5t-131.5 -316.5t131.5 -316.5t316.5 -131.5t316.5 131.5t131.5 316.5t-131.5 316.5t-316.5 131.5zM576 640h-128
v-320h128v320zM576 256h-128v-128h128v128z" />
    <glyph glyph-name="octicon-location" unicode="&#xe619;" 
d="M512 896q-158 0 -271 -104t-113 -248q0 -81 39.5 -180t96 -182.5t113 -155.5t95.5 -113l40 -41q16 16 41.5 43.5t92 109t117 159t92 178.5t41.5 182q0 144 -113 248t-271 104zM512 -35q-51 56 -101.5 120.5t-102.5 145t-84 164t-32 149.5q0 119 94 203.5t226 84.5
q134 0 228 -87q92 -86 92 -201q0 -66 -32 -149.5t-84 -164t-102.5 -145t-101.5 -120.5zM640 544q0 -53 -37.5 -90.5t-90.5 -37.5t-90.5 37.5t-37.5 90.5t37.5 90.5t90.5 37.5t90.5 -37.5t37.5 -90.5z" />
    <glyph glyph-name="octicon-link" unicode="&#xe61a;" 
d="M256 320h64v-64h-64q-73 0 -132.5 69t-59.5 155t60.5 155t131.5 69h256q71 0 131.5 -69t60.5 -155q0 -66 -37 -124t-91 -84v74q28 22 46 58.5t18 75.5q0 61 -40 110.5t-88 49.5h-256q-48 0 -88 -49.5t-40 -110.5t40 -110.5t88 -49.5zM832 512h-64v-64h64q48 0 88 -49.5
t40 -110.5t-40 -110.5t-88 -49.5h-256q-48 0 -88 49.5t-40 110.5q0 39 18 75.5t46 58.5v74q-54 -26 -91 -84t-37 -124q0 -86 60.5 -155t131.5 -69h256q71 0 131.5 69t60.5 155t-59.5 155t-132.5 69z" />
    <glyph glyph-name="octicon-mail" unicode="&#xe61b;" 
d="M64 640v-512q0 -26 19 -45t45 -19h768q26 0 45 19t19 45v512q0 26 -19 45t-45 19h-768q-26 0 -45 -19t-19 -45zM896 640l-384 -320l-384 320h768zM128 544l256 -192l-256 -192v384zM192 128l224 192l96 -96l96 96l224 -192h-640zM896 160l-256 192l256 192v-384z" />
    <glyph glyph-name="octicon-unfold" unicode="&#xe61c;" 
d="M800 416l160 -160q0 -26 -19 -45t-45 -19h-256v64h224l-128 128h-448l-128 -128h224v-64h-256q-26 0 -45 19t-19 45l160 160l-160 160q0 26 19 45t45 19h256v-64h-224l128 -128h448l128 128h-224v64h256q26 0 45 -19t19 -45zM448 512h128v192h128l-192 192l-192 -192h128
v-192zM576 320h-128v-192h-128l192 -192l192 192h-128v192z" />
    <glyph glyph-name="octicon-organization" unicode="&#xe61d;" 
d="M1024 64q0 -22 -19.5 -43t-44.5 -21h-448q-26 0 -45 19t-19 45h-384q-25 0 -44.5 21t-19.5 43q0 47 20 91t48 72.5t56 50.5t48 32l20 10q15 26 0 64q-4 3 -11 8q-26 19 -35.5 31.5t-14.5 47t-3 105.5q3 105 49 148.5t111 43.5t111 -43t49 -149q2 -71 -3 -105.5t-14.5 -47
t-35.5 -31.5q-7 -5 -11 -8q-7 -17 -7 -33t3 -23l4 -8l11 -5.5t27 -16t38.5 -27t40.5 -37.5t38 -48q22 21 47.5 38.5t39.5 24.5l14 7q15 26 0 64q-4 3 -11 8q-20 15 -28 22.5t-16 27.5t-9 50t0 84q1 55 16 94.5t39 60t49.5 29t55.5 8.5t55.5 -8.5t49.5 -29t38.5 -60
t16.5 -94.5q1 -54 0 -84t-9 -50t-16 -27.5t-29 -22.5q-7 -5 -10 -8q-7 -17 -7 -33t3 -23l4 -8q7 -4 20 -10.5t46.5 -31t58.5 -51.5t46 -71.5t21 -91.5z" />
    <glyph glyph-name="meiyouxiaoxi" unicode="&#xe6e7;" 
d="M535 614h476q5 0 9 -3.5t4 -8.5v-717q0 -5 -4 -9t-9 -4h-768v0q-5 0 -9 4t-4 9v495q12 -13 26 -22v-460h742v605h-556q17 12 33 26h523v60h-475q7 12 12 25zM896 545q6 0 10 4t4 10t-4 10t-10 4t-10 -4t-4 -10t4 -10t10 -4zM955.5 545q5.5 0 9.5 4t4 10t-4 10t-9.5 4
t-9.5 -4t-4 -10t4 -10t9.5 -4zM836.5 545q5.5 0 9.5 4t4 10t-4 10t-9.5 4t-9.5 -4t-4 -10t4 -10t9.5 -4zM909 350h-563q-6 0 -9.5 -4t-3.5 -9t3.5 -9t9.5 -4h563q5 0 9 4t4 9t-4 9t-9 4zM369 418h540q5 0 9 -3.5t4 -9t-4 -9t-9 -3.5h-531q-6 12 -9 25zM593 213h-247
q-6 0 -9.5 -3.5t-3.5 -9t3.5 -9t9.5 -3.5h247q5 0 9 3.5t4 9t-4 9t-9 3.5zM593 282h-247q-6 0 -9.5 -4t-3.5 -9t3.5 -9t9.5 -4h247q5 0 9 4t4 9t-4 9t-9 4zM593 145h-247q-6 0 -9.5 -3.5t-3.5 -9t3.5 -9.5t9.5 -4h247q5 0 9 4t4 9.5t-4 9t-9 3.5zM593 77h-247q-6 0 -9.5 -4
t-3.5 -9t3.5 -9t9.5 -4h247q5 0 9 4t4 9t-4 9t-9 4zM909 282h-248q-5 0 -8.5 -4t-3.5 -9v-43q0 -5 3.5 -9t9 -4t9 4t3.5 9v30h222v-247h-222v166q0 5 -3.5 9t-9 4t-9 -4t-3.5 -9v-179q0 -6 3.5 -9.5t8.5 -3.5h248q5 0 9 3.5t4 9.5v273q0 5 -4 9t-9 4zM593 9h-247
q-6 0 -9.5 -4t-3.5 -9.5t3.5 -9t9.5 -3.5h247q5 0 9 3.5t4 9t-4 9.5t-9 4zM76 837q75 59 180.5 59t180.5 -59q76 -61 76 -147q0 -74 -57 -130.5t-145 -71.5q-4 -50 31 -85q3 -3 3 -8.5t-3.5 -9t-9.5 -3.5v0q-47 0 -83 30t-46 76q-84 14 -141 67q-62 58 -62 135q0 86 76 147
v0zM216 512q12 -2 12 -13q0 -1 -1 -1q5 -31 26 -54.5t50 -32.5q-18 32 -18 69q0 9 1 18v0v1q0 11 11 13q83 11 137 61.5t54 116.5q0 74 -68 127t-163.5 53t-163 -53t-67.5 -127q0 -66 54 -116.5t136 -61.5zM342.5 703q5.5 0 9.5 -4t4 -9.5t-4 -9.5t-9.5 -4t-9.5 4t-4 9.5
t4 9.5t9.5 4zM170.5 703q5.5 0 9.5 -4t4 -9.5t-4 -9.5t-9.5 -4t-9.5 4t-4 9.5t4 9.5t9.5 4zM256.5 703q5.5 0 9.5 -4t4 -9.5t-4 -9.5t-9.5 -4t-9.5 4t-4 9.5t4 9.5t9.5 4z" />
    <glyph glyph-name="meiyougengduo" unicode="&#xe502;" 
d="M236 609v0q0 -15 10.5 -25.5t25 -10.5t25 10.5t10.5 25.5v0v0q0 14 -10.5 24.5t-25 10.5t-25 -10.5t-10.5 -24.5v0zM399 605v0q0 -14 10.5 -24.5t25 -10.5t24.5 10.5t10 24.5v0v0q0 15 -10 25.5t-24.5 10.5t-25 -10.5t-10.5 -25.5v0zM604 243q-3 3 -6 0q-2 -3 1 -6l7 -7
q1 -1 3 -1t3 2q3 3 0 5l-4 4t-3 2.5zM626 223q-3 3 -5.5 0t0.5 -6l14 -14q1 -1 2.5 -1t2.5 1q3 3 0 6zM765 148q-10 -2 -18 -4q-5 0 -4 -4t4 -4h1q8 2 19 4q4 1 3 5t-5 3zM837 178q-9 -5 -17 -9q-4 -2 -2 -5q1 -2 4 -2h1q11 5 18 9q3 2 2 5q-2 4 -6 2zM802 161q-8 -4 -18 -7
q-4 -1 -3 -5q1 -3 4 -3h1q8 3 19 8q4 1 2.5 5t-5.5 2v0zM871 198q-7 -5 -16 -11q-4 -2 -2 -5q1 -2 3 -2h3q11 7 16 11q4 2 2 5q-2 4 -6 2zM727 142h-1q-9 0 -18 2q-4 1 -4.5 -3t3.5 -5q9 -2 20 -2v0q4 0 4 4t-4 4zM990 251l1 3h1q5 0 8 3t3 7.5t-3 8t-7.5 3.5t-8 -3.5
t-3.5 -7.5q0 -5 3 -8l-2 -3h-6q-11 0 -20 -6l-6 5q1 2 1 5q0 4 -3.5 7.5t-8 3.5t-7.5 -3.5t-3 -8t3 -7.5t8 -3q1 0 4 1l6 -6q-3 -2 -4 -4q-2 0 -4 1h-1q-4 1 -8 1q-12 0 -22 -8.5t-11 -16.5q-2 0 -4 -1q-5 -4 -8 -6q-4 -2 -1 -5q1 -2 3 -2q1 0 2 1q5 3 9 5q2 -7 10 -13.5
t17 -8.5h1h3q10 0 19 5v0h1q2 1 3 3q10 -6 20 -6q14 0 24 10t10 24q0 21 -19 30zM940 255q-3 0 -3 3t3 3t3 -3t-3 -3zM992 267q3 0 3 -3t-3 -3t-3 3t3 3zM908 212q0 5 8 13q0 -1 -1 -4q-1 -12 3 -23q-10 7 -10 14zM933 193h-2q-10 9 -8 27q2 9 5 10q0 1 1 1q2 1 4 1v0
q-4 -8 -4 -17q1 -14 11 -21q-4 -1 -7 -1zM949 198q-12 5 -12 17q-1 10 4 16l2 -1q-2 -5 -2 -10q0 -12 9 -22h-1zM975.5 194q-10.5 0 -18 8t-7.5 18.5t7.5 18t18 7.5t18 -7.5t7.5 -18t-7.5 -18.5t-18 -8zM958 225v0q0 -5 6 -5t6 5v0v0q0 6 -6 6t-6 -6v0zM983 228v0
q0 -6 5.5 -6t5.5 6v0v0q0 6 -5.5 6t-5.5 -6v0zM749 643q4 1 16 -3.5t22 -13.5q17 -17 12 -36q-2 -8 5 -10h3q6 0 7 5q8 29 -16 52q-12 12 -28.5 18t-25.5 3q-8 -2 -6 -10q3 -7 11 -5zM755 686q7 1 26 -3.5t34 -17.5q27 -22 27 -61q0 -8 8 -8q3 0 5.5 2t2.5 6q0 47 -32 74
q-18 14 -41 20t-34 3q-7 -1 -5.5 -9t9.5 -6zM186 205q-15 4 -25.5 14t-15 20.5t-6 23t-1.5 18t1 8.5q1 8 -7 9t-9 -7q-4 -16 3 -43q13 -47 56 -58q1 -1 2 -1q6 0 8 6q3 8 -6 10zM634 106l1 9l72 32q2 1 3 2l161 192q4 4 0.5 9.5t-9.5 2.5l-52 -20v110q0 3 -3 5.5t-7 1.5
l-70 -16l-13 19q28 7 46 30.5t18 53.5q0 36 -25.5 62t-61.5 26t-62 -26t-26 -62q0 -9 2 -17l-70 -6v73q0 102 -72 174t-174 72t-174.5 -72t-72.5 -174v-519q-30 -18 -30 -37q0 -39 112.5 -67t272 -28t272 28t112.5 67q-1 22 -41 42t-109 33v0zM657 142l14 17v-2q2 -3 6 -6z
M806 314l32 12l-139 -165l-14 -6q-5 3 -7 7q-1 2 -3 2zM793 432v-106l-224 -67l-6 120zM693.5 608q29.5 0 50.5 -21t21 -50.5t-21 -50.5t-50.5 -21t-50.5 21t-21 50.5t21 50.5t50.5 21zM612 504q10 -24 32.5 -39.5t49.5 -15.5q4 0 5 1l13 -20l-159 -37q-7 -2 -7 -9l6 -104
l-129 209zM343 290q0 36 -25 61l91 131l129 -210l-85 49q-6 3 -11 -2l-123 -145l-22 39q21 12 33.5 32.5t12.5 44.5zM255.5 218q-29.5 0 -50.5 21t-21 50.5t21 50.5t50.5 21t50.5 -21t21 -50.5t-21 -50.5t-50.5 -21zM375 -5q-39 -5 -84 -5q-68 0 -123.5 13.5t-75 24
t-31.5 20.5v539q0 95 67.5 162.5t163 67.5t163 -67.5t67.5 -162.5v-74l-113 -9h-0.5h-0.5v0h-2l-1 -1l-2 -2l-97 -139q-23 16 -51 16q-36 0 -61.5 -26t-25.5 -62t25.5 -61.5t61.5 -25.5q14 0 28 4l24 -46l-42 -49q-3 -3 -2 -7t5 -6l112 -55l-5 -49v0zM284 109l39 45v1
l127 149l99 -57l-162 -189l-103 51v0zM613 54l-223 -73l6 61l222 67zM413 64l153 178l211 63l-110 -127l-1 1q-7 9 -12 15q-3 3 -6 0.5t0 -5.5q7 -8 12 -15l2 -2l-40 -44l-209 -64v0z" />
  </font>
</defs>
</svg>
